# xmcd CD database file
#
# Track frame offsets:
#	150
#	10275
#	19952
#	32152
#	44757
#	57245
#	65217
#	74802
#	86302
#	99290
#	112750
#	129415
#	143335
#	158050
#	173915
#	188082
#	205325
#	217060
#	235377
#	254532
#	271802
#	285540
#	298500
#	315115
#
# Disc length: 4374 seconds
#
# Revision: 2
# Processed by: cddbd v1.5.2PL0 Copyright (c) Steve Scherf et al.
# Submitted via: CDex 1.70beta2
#
DISCID=5f111418
DTITLE=Faith , Percy - Hollywood`s Great Themes (1962) - The Love Goddesses and Hollywood`s Great Themes (K)
DYEAR=1964
DGENRE=Easy Listening
TTITLE0=The Love Goddess
TTITLE1=Cheesecake
TTITLE2=Marilyn
TTITLE3=Surrender
TTITLE4=The Vamp
TTITLE5=Keystone Kapers
TTITLE6=The Virginian
TTITLE7=Our Love
TTITLE8=The Monaco Theme
TTITLE9=Chico Bolero
TTITLE10=Celia`s Waltz
TTITLE11=Oba! (Bossa Nova)
TTITLE12=El Cid (Love Theme) (Miklos Rosza)
TTITLE13=Moon River (Mercer-Mancini)
TTITLE14=Theme From The King Of The Kings (Miklos Rosza)
TTITLE15=Splendor In The Grass (Love Theme) (David Amram)
TTITLE16=Maria (Sondheim-Bernstein)
TTITLE17=It Might As Well Be Spring (Hammerstein II- Rodgers)
TTITLE18=Over And Over Again (Rodgers-Hart)
TTITLE19=Ben Hur (Love Theme) (Miklos Rosza)
TTITLE20=Too Late Blues (David Raskin)
TTITLE21=I Enjoy Being A Girl (Hammerstein II- Rodgers)
TTITLE22=Theme From The Four Horseman Of The Apocalypse (André Previn)
TTITLE23=Theme From Light In The Plaza (Mario Nascimbene)
EXTD=YEAR: 1964
EXTT0=
EXTT1=
EXTT2=
EXTT3=
EXTT4=
EXTT5=
EXTT6=
EXTT7=
EXTT8=
EXTT9=
EXTT10=
EXTT11=
EXTT12=
EXTT13=
EXTT14=
EXTT15=
EXTT16=
EXTT17=
EXTT18=
EXTT19=
EXTT20=
EXTT21=
EXTT22=
EXTT23=
PLAYORDER=
